<mxfile host="65bd71144e">
    <diagram id="Wm-BTRdqjP_XX6lUrxme" name="第 1 页">
        <mxGraphModel dx="1113" dy="713" grid="0" gridSize="10" guides="1" tooltips="1" connect="1" arrows="1" fold="1" page="1" pageScale="1" pageWidth="827" pageHeight="1169" math="0" shadow="0">
            <root>
                <mxCell id="0"/>
                <mxCell id="1" parent="0"/>
                <mxCell id="7" style="edgeStyle=none;html=1;exitX=0.5;exitY=1;exitDx=0;exitDy=0;entryX=0.5;entryY=0;entryDx=0;entryDy=0;fontSize=16;" edge="1" parent="1" source="2" target="6">
                    <mxGeometry relative="1" as="geometry"/>
                </mxCell>
                <mxCell id="2" value="银行A" style="rounded=0;whiteSpace=wrap;html=1;fontSize=16;fillColor=#60a917;strokeColor=#2D7600;fontColor=#ffffff;" vertex="1" parent="1">
                    <mxGeometry x="41" y="78" width="120" height="60" as="geometry"/>
                </mxCell>
                <mxCell id="9" style="edgeStyle=none;html=1;exitX=0.5;exitY=1;exitDx=0;exitDy=0;entryX=0.5;entryY=0;entryDx=0;entryDy=0;fontSize=16;" edge="1" parent="1" source="4" target="6">
                    <mxGeometry relative="1" as="geometry"/>
                </mxCell>
                <mxCell id="4" value="银行B" style="rounded=0;whiteSpace=wrap;html=1;fontSize=16;fillColor=#60a917;strokeColor=#2D7600;fontColor=#ffffff;" vertex="1" parent="1">
                    <mxGeometry x="229" y="78" width="120" height="60" as="geometry"/>
                </mxCell>
                <mxCell id="10" style="edgeStyle=none;html=1;entryX=0.5;entryY=0;entryDx=0;entryDy=0;fontSize=16;" edge="1" parent="1" source="5" target="6">
                    <mxGeometry relative="1" as="geometry"/>
                </mxCell>
                <mxCell id="5" value="其他企业机构" style="rounded=0;whiteSpace=wrap;html=1;fontSize=16;fillColor=#60a917;strokeColor=#2D7600;fontColor=#ffffff;" vertex="1" parent="1">
                    <mxGeometry x="434" y="78" width="120" height="59" as="geometry"/>
                </mxCell>
                <mxCell id="15" style="edgeStyle=none;html=1;exitX=0.5;exitY=1;exitDx=0;exitDy=0;entryX=0.487;entryY=0.017;entryDx=0;entryDy=0;entryPerimeter=0;fontSize=16;" edge="1" parent="1" source="6" target="11">
                    <mxGeometry relative="1" as="geometry"/>
                </mxCell>
                <mxCell id="6" value="公积金中心系统" style="rounded=0;whiteSpace=wrap;html=1;fontSize=16;fillColor=#1ba1e2;strokeColor=#006EAF;fontColor=#ffffff;" vertex="1" parent="1">
                    <mxGeometry x="193" y="244" width="199" height="60" as="geometry"/>
                </mxCell>
                <mxCell id="19" style="edgeStyle=none;html=1;exitX=0.5;exitY=1;exitDx=0;exitDy=0;fontSize=23;fontColor=#FF0000;" edge="1" parent="1" source="11" target="17">
                    <mxGeometry relative="1" as="geometry"/>
                </mxCell>
                <mxCell id="11" value="&lt;b&gt;区块链服务API层&lt;/b&gt;" style="rounded=1;whiteSpace=wrap;html=1;fontSize=16;fillColor=#f0a30a;strokeColor=#BD7000;fontColor=#000000;" vertex="1" parent="1">
                    <mxGeometry x="23" y="337" width="554" height="60" as="geometry"/>
                </mxCell>
                <mxCell id="12" value="数据上链" style="rounded=1;whiteSpace=wrap;html=1;fontSize=16;" vertex="1" parent="1">
                    <mxGeometry x="439" y="348.5" width="110" height="37" as="geometry"/>
                </mxCell>
                <mxCell id="17" value="" style="rounded=0;whiteSpace=wrap;html=1;fontSize=16;" vertex="1" parent="1">
                    <mxGeometry x="25" y="440" width="562" height="245" as="geometry"/>
                </mxCell>
                <mxCell id="18" value="区&lt;br style=&quot;font-size: 23px;&quot;&gt;块&lt;br style=&quot;font-size: 23px;&quot;&gt;链&lt;br style=&quot;font-size: 23px;&quot;&gt;网&lt;br style=&quot;font-size: 23px;&quot;&gt;络&lt;br style=&quot;font-size: 23px;&quot;&gt;层" style="text;html=1;strokeColor=none;fillColor=none;align=center;verticalAlign=middle;whiteSpace=wrap;rounded=0;fontSize=23;fontColor=#FF0000;" vertex="1" parent="1">
                    <mxGeometry x="48" y="533" width="40" height="20" as="geometry"/>
                </mxCell>
                <mxCell id="20" value="&lt;font color=&quot;#ff8000&quot;&gt;银行A&lt;/font&gt;" style="ellipse;whiteSpace=wrap;html=1;fontSize=23;fontColor=#FF0000;" vertex="1" parent="1">
                    <mxGeometry x="197" y="453" width="108" height="56" as="geometry"/>
                </mxCell>
                <mxCell id="21" value="&lt;font color=&quot;#ff8000&quot;&gt;银行A&lt;/font&gt;" style="ellipse;whiteSpace=wrap;html=1;fontSize=23;fontColor=#FF0000;" vertex="1" parent="1">
                    <mxGeometry x="108" y="525" width="108" height="62" as="geometry"/>
                </mxCell>
                <mxCell id="22" value="&lt;font color=&quot;#ff8000&quot;&gt;银行A&lt;/font&gt;" style="ellipse;whiteSpace=wrap;html=1;fontSize=23;fontColor=#FF0000;" vertex="1" parent="1">
                    <mxGeometry x="204" y="592" width="109" height="62" as="geometry"/>
                </mxCell>
                <mxCell id="23" value="&lt;font color=&quot;#ff8000&quot;&gt;银行A&lt;/font&gt;" style="ellipse;whiteSpace=wrap;html=1;fontSize=23;fontColor=#FF0000;" vertex="1" parent="1">
                    <mxGeometry x="312" y="528" width="108" height="59" as="geometry"/>
                </mxCell>
                <mxCell id="27" value="" style="endArrow=none;html=1;fontSize=23;fontColor=#FF0000;exitX=0.5;exitY=0;exitDx=0;exitDy=0;entryX=0;entryY=0.5;entryDx=0;entryDy=0;" edge="1" parent="1" source="21" target="20">
                    <mxGeometry width="50" height="50" relative="1" as="geometry">
                        <mxPoint x="164" y="535" as="sourcePoint"/>
                        <mxPoint x="214" y="485" as="targetPoint"/>
                    </mxGeometry>
                </mxCell>
                <mxCell id="28" value="" style="endArrow=none;html=1;fontSize=23;fontColor=#FF0000;entryX=1;entryY=0.5;entryDx=0;entryDy=0;exitX=0.5;exitY=0;exitDx=0;exitDy=0;" edge="1" parent="1" source="23" target="20">
                    <mxGeometry width="50" height="50" relative="1" as="geometry">
                        <mxPoint x="396" y="520" as="sourcePoint"/>
                        <mxPoint x="446" y="470" as="targetPoint"/>
                    </mxGeometry>
                </mxCell>
                <mxCell id="29" value="" style="endArrow=none;html=1;fontSize=23;fontColor=#FF0000;exitX=1;exitY=0.5;exitDx=0;exitDy=0;entryX=0.5;entryY=1;entryDx=0;entryDy=0;" edge="1" parent="1" source="22" target="23">
                    <mxGeometry width="50" height="50" relative="1" as="geometry">
                        <mxPoint x="348" y="665" as="sourcePoint"/>
                        <mxPoint x="398" y="615" as="targetPoint"/>
                    </mxGeometry>
                </mxCell>
                <mxCell id="30" value="" style="endArrow=none;html=1;fontSize=23;fontColor=#FF0000;entryX=0.509;entryY=1;entryDx=0;entryDy=0;entryPerimeter=0;" edge="1" parent="1" target="21">
                    <mxGeometry width="50" height="50" relative="1" as="geometry">
                        <mxPoint x="208" y="630" as="sourcePoint"/>
                        <mxPoint x="163" y="608" as="targetPoint"/>
                    </mxGeometry>
                </mxCell>
                <mxCell id="31" value="" style="endArrow=none;html=1;fontSize=23;fontColor=#FF0000;exitX=0.981;exitY=0.629;exitDx=0;exitDy=0;exitPerimeter=0;entryX=0;entryY=0.5;entryDx=0;entryDy=0;" edge="1" parent="1" source="21" target="23">
                    <mxGeometry width="50" height="50" relative="1" as="geometry">
                        <mxPoint x="451" y="562" as="sourcePoint"/>
                        <mxPoint x="501" y="512" as="targetPoint"/>
                    </mxGeometry>
                </mxCell>
                <mxCell id="32" value="" style="endArrow=none;html=1;fontSize=23;fontColor=#FF0000;entryX=0.5;entryY=1;entryDx=0;entryDy=0;" edge="1" parent="1" source="22" target="20">
                    <mxGeometry width="50" height="50" relative="1" as="geometry">
                        <mxPoint x="236" y="573" as="sourcePoint"/>
                        <mxPoint x="286" y="523" as="targetPoint"/>
                    </mxGeometry>
                </mxCell>
                <mxCell id="33" value="智能合约" style="rounded=1;whiteSpace=wrap;html=1;fontSize=16;fillColor=#0050ef;strokeColor=#001DBC;fontColor=#ffffff;" vertex="1" parent="1">
                    <mxGeometry x="439" y="467" width="110" height="37" as="geometry"/>
                </mxCell>
                <mxCell id="34" value="共识" style="rounded=1;whiteSpace=wrap;html=1;fontSize=16;fillColor=#0050ef;strokeColor=#001DBC;fontColor=#ffffff;" vertex="1" parent="1">
                    <mxGeometry x="439" y="528" width="110" height="37" as="geometry"/>
                </mxCell>
                <mxCell id="35" value="账本" style="rounded=1;whiteSpace=wrap;html=1;fontSize=16;fillColor=#0050ef;strokeColor=#001DBC;fontColor=#ffffff;" vertex="1" parent="1">
                    <mxGeometry x="444" y="587" width="110" height="37" as="geometry"/>
                </mxCell>
            </root>
        </mxGraphModel>
    </diagram>
</mxfile>